<mxfile host="app.diagrams.net" modified="2023-10-12T14:08:23.411Z" agent="Mozilla/5.0 (Windows NT 10.0; Win64; x64) AppleWebKit/537.36 (KHTML, like Gecko) Chrome/117.0.0.0 Safari/537.36" version="21.7.5" etag="Q12bxlcQk2OAHKTojz1T" type="github">
  <diagram name="Page-1" id="X_Ck_nU8IoRVPteRDaDd">
    <mxGraphModel>
      <root>
        <mxCell id="0" />
        <mxCell id="1" parent="0" />
      </root>
    </mxGraphModel>
  </diagram>
</mxfile>
